<?xml version="1.0" encoding="utf-8"?>
<!-- Generator: Adobe Illustrator 26.5.0, SVG Export Plug-In . SVG Version: 6.00 Build 0)  -->
<svg version="1.1" xmlns="http://www.w3.org/2000/svg" xmlns:xlink="http://www.w3.org/1999/xlink" x="0px" y="0px"
	 viewBox="0 0 820.3 455.8" style="enable-background:new 0 0 820.3 455.8;" xml:space="preserve">
<style type="text/css">
	.st0{fill:none;stroke:#000000;stroke-width:3;stroke-miterlimit:10;}
	.st1{fill:#1D1E1B;}
	.st2{fill:#FFFFFF;}
	.st3{font-family:'MyriadPro-Regular';}
	.st4{font-size:28.3728px;}
	.st5{letter-spacing:23;}
	.st6{font-size:13.1956px;}
</style>
<g id="Capa_2">
	<line class="st0" x1="418.3" y1="118.3" x2="118.9" y2="147"/>
	<line class="st0" x1="418.3" y1="403.4" x2="418.3" y2="116.8"/>
	<line class="st0" x1="246.6" y1="295.1" x2="418.3" y2="118.3"/>
	<line class="st0" x1="590" y1="297.8" x2="418.3" y2="118.3"/>
	<line class="st0" x1="717.7" y1="151.1" x2="418.3" y2="118.3"/>
</g>
<g id="Capa_3">
</g>
<g id="Capa_1">
	<path class="st1" d="M521.9,112.8H314.7c-27.2,0-49.3-22.1-49.3-49.3v-9.8c0-27.2,22.1-49.3,49.3-49.3h207.2
		c27.2,0,49.3,22.1,49.3,49.3v9.8C571.2,90.7,549.1,112.8,521.9,112.8z"/>
	<text transform="matrix(1 0 0 1 305.1558 66.624)"><tspan x="0" y="0" class="st2 st3 st4">Dise침os nacionales</tspan><tspan x="225.5" y="0" class="st2 st3 st4 st5">	</tspan></text>
	<text transform="matrix(1 0 0 1 8.5942 156.1132)"><tspan x="0" y="0" class="st3 st6">                   Yag치n</tspan><tspan x="0" y="15.8" class="st3 st6">primer automovil Chileno</tspan></text>
	<text transform="matrix(1 0 0 1 164.8252 321.7372)" class="st3 st6">Calculadora IRT</text>
	<text transform="matrix(1 0 0 1 379.46 430.9697)"><tspan x="0" y="0" class="st3 st6">Proyecto SYNCO</tspan><tspan x="0" y="15.8" class="st3 st6">(nunca se termin칩)</tspan></text>
	<text transform="matrix(1 0 0 1 583.2393 321.5917)"><tspan x="0" y="0" class="st3 st6">Cuchara medidora</tspan><tspan x="0" y="15.8" class="st3 st6"> de leche en polvo</tspan></text>
	<text transform="matrix(1 0 0 1 737.9648 153.3554)"><tspan x="0" y="0" class="st3 st6">Juego de loza </tspan><tspan x="0" y="15.8" class="st3 st6"> f치cil de apilar</tspan></text>
</g>
</svg>
